<?xml version="1.0" standalone="no"?>
<!DOCTYPE svg PUBLIC "-//W3C//DTD SVG 20010904//EN"
 "http://www.w3.org/TR/2001/REC-SVG-20010904/DTD/svg10.dtd">
<svg version="1.0" xmlns="http://www.w3.org/2000/svg"
 width="287.000000pt" height="287.000000pt" viewBox="0 0 287.000000 287.000000"
 preserveAspectRatio="xMidYMid meet">
<metadata>
Created by potrace 1.14, written by Peter Selinger 2001-2017
</metadata>
<g transform="translate(0.000000,287.000000) scale(0.100000,-0.100000)"
fill="#000000" stroke="none">
<path d="M1692 2794 c-40 -7 -109 -24 -153 -39 -44 -14 -83 -24 -87 -21 -40
24 -191 25 -265 0 -131 -43 -223 -107 -300 -207 -12 -16 -27 -35 -34 -42 -7
-7 -14 -25 -17 -39 -3 -15 -13 -35 -24 -44 -28 -25 -82 -98 -82 -111 0 -6 -3
-11 -7 -11 -5 0 -16 -15 -27 -33 -10 -17 -28 -48 -39 -67 -16 -29 -32 -75 -51
-145 -1 -5 -5 -19 -9 -30 -3 -11 -8 -36 -11 -55 -3 -19 -8 -46 -11 -60 -3 -14
-7 -41 -10 -60 -3 -19 -7 -46 -10 -60 -5 -27 -16 -98 -18 -115 0 -6 -24 -11
-56 -10 l-56 0 -11 -50 c-10 -44 -9 -54 8 -83 14 -23 17 -36 10 -45 -18 -21
-23 -66 -29 -247 -5 -193 4 -247 45 -265 18 -8 22 -18 23 -55 2 -130 36 -249
113 -387 16 -29 33 -53 38 -53 4 0 8 -4 8 -10 0 -12 80 -120 130 -174 92 -102
162 -149 280 -191 69 -24 115 -30 240 -29 103 1 125 4 210 34 109 37 201 82
310 149 105 65 174 126 255 225 22 26 53 62 68 79 16 17 36 40 45 52 23 29 41
34 77 20 17 -7 37 -10 45 -6 33 13 70 44 70 57 0 8 5 14 10 14 6 0 10 7 10 15
0 8 4 15 9 15 7 0 17 19 36 70 1 3 11 25 22 50 18 39 35 84 38 100 1 3 5 21
10 40 14 58 13 103 -2 143 -9 20 -18 37 -22 38 -3 0 -15 2 -26 4 -11 2 -32 -2
-47 -9 -24 -13 -26 -12 -22 5 2 11 6 28 8 39 3 11 7 24 10 28 5 9 12 43 22
102 3 19 7 42 9 50 3 8 7 33 10 55 4 22 8 51 10 65 16 91 20 149 19 250 -1
101 -6 131 -39 247 -45 157 -43 177 18 194 89 24 89 24 72 65 -19 46 -92 149
-136 192 -50 49 -130 99 -209 132 -39 16 -70 26 -70 23 0 -3 -7 0 -15 7 -8 7
-15 9 -15 5 0 -4 -6 -3 -12 2 -7 6 -26 14 -43 18 -16 4 -24 10 -17 12 6 3 12
11 12 19 0 8 4 14 9 14 13 0 35 60 25 69 -20 17 -141 54 -193 58 -31 2 -63 5
-71 7 -8 1 -48 -3 -88 -10z"/>
</g>
</svg>
